<svg width="377" height="390" viewBox="0 0 377 390" fill="none" xmlns="http://www.w3.org/2000/svg">
<path d="M271.001 321.692L115.718 273.643C111.841 272.433 108.393 270.136 105.782 267.025C103.172 263.914 101.508 260.119 100.99 256.091L79.3792 84.5115C79.0751 82.1119 79.378 79.6743 80.2602 77.4221C81.1423 75.1699 82.5755 73.175 84.4284 71.6202C86.2813 70.0654 88.4947 69.0004 90.8659 68.5228C93.2371 68.0451 95.6902 68.1701 98.0006 68.8863L263.221 119.963C267.103 121.164 270.556 123.458 273.168 126.571C275.78 129.684 277.44 133.484 277.949 137.515L298.319 298.77C298.782 302.294 298.349 305.878 297.061 309.191C295.773 312.504 293.67 315.438 290.948 317.724C288.225 320.009 284.97 321.571 281.483 322.265C277.997 322.958 274.392 322.761 271.001 321.692Z" fill="#FF741E"/>
</svg>
