<svg width="611" height="308" viewBox="0 0 611 308" fill="none" xmlns="http://www.w3.org/2000/svg">
<path d="M18.0855 305.96H131.091C135.476 305.931 139.693 304.271 142.923 301.305C146.152 298.338 148.162 294.276 148.562 289.909C152.541 251.266 170.708 215.47 199.55 189.445C228.393 163.42 265.86 149.015 304.708 149.015C343.556 149.015 381.024 163.42 409.866 189.445C438.708 215.47 456.875 251.266 460.854 289.909C461.254 294.276 463.265 298.338 466.494 301.305C469.723 304.271 473.94 305.931 478.325 305.96H591.369C594.979 305.949 598.498 304.828 601.45 302.75C604.401 300.671 606.642 297.736 607.869 294.341C608.68 292.086 609.024 289.69 608.879 287.298C604.188 209.808 570.1 137.03 513.572 83.8199C457.044 30.6101 382.34 0.980992 304.708 0.980992C227.077 0.980992 152.372 30.6101 95.8446 83.8199C39.3168 137.03 5.22823 209.808 0.537536 287.298C0.390837 289.693 0.735831 292.093 1.55128 294.35C2.36674 296.607 3.6354 298.673 5.27919 300.421C6.92298 302.169 8.90712 303.562 11.1095 304.515C13.3119 305.467 15.6859 305.959 18.0855 305.96Z" fill="#82F03C"/>
</svg>
