<svg width="388" height="500" viewBox="0 0 388 500" fill="none" xmlns="http://www.w3.org/2000/svg">
<path d="M-16.7814 321.862C-16.7814 321.862 -85.6617 176.165 -10.4003 149.021C32.9405 133.394 77.9031 159.106 108.162 189.002C122.431 203.099 136.765 219.907 144.454 238.592C150.719 253.829 151.749 272.154 143.094 286.152C132.472 303.337 109.644 310.525 90.3689 307.971C49.1 302.488 42.5752 242.448 41.0521 209.598C39.2481 171.024 45.0005 121.518 79.1152 97.1095C141.024 52.8827 229.519 116.596 260.214 169.88C285.832 214.325 299.547 283.851 261.065 325.392" stroke="#FFB800" stroke-width="22.1277" stroke-miterlimit="10" stroke-dasharray="1.11 1.11"/>
<path d="M309.89 331.424L251.482 332.544L250.37 274.143" stroke="#FFB800" stroke-width="16.5957" stroke-miterlimit="10" stroke-dasharray="1.11 1.11"/>
</svg>
