<svg width="612" height="613" viewBox="0 0 612 613" fill="none" xmlns="http://www.w3.org/2000/svg">
<path d="M287.289 21.0829C297.576 -6.02048 314.428 -6.02048 324.714 21.0829C335.001 48.1864 358.278 51.9078 376.464 29.2982C394.65 6.68863 410.659 11.7442 412.063 40.8488C413.468 69.9533 434.462 80.556 458.757 64.652C483.052 48.7481 496.638 58.6486 489.02 86.6648C481.402 114.681 498.078 131.322 526.059 123.704C554.04 116.085 563.976 129.707 548.072 153.967C532.168 178.227 542.876 199.256 571.875 200.661C600.874 202.065 606.035 218.215 583.426 236.26C560.816 254.306 564.502 277.723 591.606 288.009C618.709 298.296 618.744 315.148 591.606 325.435C564.467 335.721 560.816 359.033 583.426 377.184C606.035 395.335 600.98 411.379 571.875 412.784C542.77 414.188 532.168 435.218 548.072 459.477C563.976 483.737 554.075 497.394 526.059 489.775C498.043 482.157 481.402 498.833 489.02 526.814C496.638 554.796 483.017 564.696 458.757 548.827C434.497 532.958 413.468 543.631 412.063 572.595C410.659 601.56 394.509 606.791 376.464 584.181C358.418 561.571 335.001 565.223 324.714 592.361C314.428 619.5 297.576 619.5 287.289 592.361C277.003 565.223 253.691 561.536 235.505 584.181C217.319 606.826 201.345 601.735 199.94 572.595C198.536 543.456 177.506 532.923 153.247 548.827C128.987 564.731 115.33 554.796 122.948 526.814C130.567 498.833 113.891 482.157 85.9094 489.775C57.9283 497.394 47.9927 483.772 63.8967 459.477C79.8006 435.182 69.0927 414.188 40.1285 412.784C11.1644 411.379 5.93327 395.229 28.5429 377.184C51.1524 359.138 47.5012 335.721 20.3627 325.435C-6.77584 315.148 -6.77584 298.296 20.3627 288.009C47.5012 277.723 51.1876 254.446 28.5429 236.26C5.89816 218.074 10.9888 202.065 40.1285 200.661C69.2682 199.256 79.8006 178.262 63.8967 153.967C47.9927 129.672 57.8932 116.085 85.9094 123.704C113.926 131.322 130.567 114.646 122.948 86.6648C115.33 58.6837 128.952 48.7481 153.247 64.652C177.541 80.556 198.536 69.848 199.94 40.8488C201.345 11.8495 217.494 6.68863 235.505 29.2982C253.515 51.9078 276.967 48.2215 287.289 21.0829Z" fill="#FF8078"/>
</svg>
