<svg width="116" height="116" viewBox="0 0 116 116" fill="none" xmlns="http://www.w3.org/2000/svg">
<path d="M54.0678 4.45519C55.9964 -0.626338 59.1559 -0.626338 61.0845 4.45519C63.0131 9.53671 67.3772 10.2344 70.7868 5.99544C74.1964 1.75645 77.1979 2.7043 77.4612 8.16101C77.7245 13.6177 81.6607 15.6056 86.2157 12.6238C90.7706 9.64203 93.318 11.4982 91.8896 16.7509C90.4612 22.0036 93.5878 25.1236 98.8339 23.6952C104.08 22.2668 105.943 24.8208 102.961 29.3691C99.9792 33.9175 101.987 37.8603 107.424 38.1236C112.861 38.3869 113.828 41.4147 109.589 44.798C105.35 48.1813 106.042 52.5717 111.123 54.5003C116.205 56.4289 116.211 59.5884 111.123 61.517C106.035 63.4456 105.35 67.8163 109.589 71.2193C113.828 74.6223 112.881 77.6305 107.424 77.8937C101.967 78.157 99.9792 82.0998 102.961 86.6482C105.943 91.1965 104.087 93.757 98.8339 92.3287C93.5813 90.9003 90.4612 94.0269 91.8896 99.273C93.318 104.519 90.764 106.375 86.2157 103.4C81.6673 100.425 77.7245 102.426 77.4612 107.856C77.1979 113.287 74.1701 114.267 70.7868 110.028C67.4035 105.789 63.0131 106.474 61.0845 111.562C59.1559 116.65 55.9964 116.65 54.0678 111.562C52.1392 106.474 47.7686 105.783 44.3589 110.028C40.9493 114.274 37.9544 113.32 37.6911 107.856C37.4278 102.393 33.485 100.418 28.9366 103.4C24.3883 106.382 21.8278 104.519 23.2561 99.273C24.6845 94.0269 21.5579 90.9003 16.3118 92.3287C11.0657 93.757 9.20294 91.2031 12.1847 86.6482C15.1665 82.0932 13.1589 78.157 7.72851 77.8937C2.29812 77.6305 1.31736 74.6026 5.55636 71.2193C9.79535 67.836 9.11079 63.4456 4.02268 61.517C-1.06542 59.5884 -1.06542 56.4289 4.02268 54.5003C9.11079 52.5717 9.80193 48.2076 5.55636 44.798C1.31078 41.3884 2.26521 38.3869 7.72851 38.1236C13.1918 37.8603 15.1665 33.9241 12.1847 29.3691C9.20294 24.8142 11.0591 22.2668 16.3118 23.6952C21.5645 25.1236 24.6845 21.997 23.2561 16.7509C21.8278 11.5048 24.3817 9.64203 28.9366 12.6238C33.4916 15.6056 37.4278 13.598 37.6911 8.16101C37.9544 2.72404 40.9822 1.75645 44.3589 5.99544C47.7356 10.2344 52.1326 9.54329 54.0678 4.45519Z" fill="#34DCFE"/>
</svg>
