<svg width="345" height="344" viewBox="0 0 345 344" fill="none" xmlns="http://www.w3.org/2000/svg">
<path d="M267.216 303.708C272.996 316.359 269.828 318.519 260.16 308.521L228.254 275.464C218.586 265.467 211.592 268.614 212.703 282.479L216.364 328.29C217.475 342.134 213.772 343.08 208.136 330.347L189.437 288.362C183.801 275.649 176.148 276.225 172.446 289.637L160.227 333.926C156.524 347.339 152.718 346.968 151.751 333.083L148.542 287.251C147.576 273.366 140.191 271.288 132.086 282.623L105.446 320.082C97.4033 331.417 93.9474 329.751 97.7735 316.38L110.445 272.214C114.271 258.843 108.038 254.358 96.601 262.258L58.7712 288.383C47.3133 296.282 44.6391 293.525 52.8057 282.211L79.8152 245.04C88.0435 233.788 83.6825 227.452 70.2292 230.949L25.8579 242.592C12.384 246.089 10.8206 242.592 22.3403 234.816L60.4375 209.123C71.9777 201.347 70.0852 193.901 56.3233 192.667L10.5738 188.326C-3.2704 187.01 -3.55839 183.183 9.93608 179.81L54.5131 168.702C68.0075 165.348 68.7687 157.717 56.2205 151.731L14.7085 132.024C2.16031 126.038 3.18885 122.355 17.0124 123.795L62.7208 128.588C76.5444 130.049 79.8769 123.137 70.1263 113.222L37.8713 80.4938C28.1001 70.5992 30.3423 67.493 42.8288 73.582L84.1351 93.7208C96.6421 99.8921 102.135 94.4614 96.3542 81.8309L77.2233 40.0309C71.4429 27.3799 74.6108 25.2199 84.2791 35.2379L116.184 68.2953C125.853 78.2927 132.847 75.1453 131.736 61.2806L128.054 15.4694C126.943 1.60462 130.666 0.65836 136.282 13.4123L154.96 55.3974C160.617 68.0896 168.27 67.5136 171.973 54.122L184.192 9.81238C187.894 -3.5998 191.7 -3.20896 192.667 10.6558L195.876 56.5082C196.843 70.3729 204.228 72.4506 212.333 61.116L238.951 23.6771C247.015 12.3426 250.471 14.0088 246.645 27.3799L233.808 71.5249C229.982 84.8959 236.195 89.3598 247.653 81.4812L285.482 55.3974C296.94 47.4982 299.615 50.2546 291.448 61.5686L264.48 98.5961C256.251 109.848 260.633 116.205 274.086 112.687L318.56 101.126C332.014 97.6293 333.598 101.126 322.078 108.902L283.981 134.595C272.441 142.371 274.333 149.797 288.095 151.052L333.844 155.392C347.689 156.709 347.977 160.535 334.482 163.888L289.905 174.996C276.411 178.37 275.65 186.002 288.198 191.967L329.71 211.695C342.258 217.66 341.229 221.363 327.385 219.923L281.697 215.109C267.874 213.669 264.541 220.581 274.292 230.476L306.547 263.204C316.318 273.119 314.076 276.225 301.569 270.136L260.283 249.977C247.776 243.806 242.284 249.236 248.064 261.887L267.216 303.708Z" fill="#FFF000"/>
</svg>
