<svg width="461" height="461" viewBox="0 0 461 461" fill="none" xmlns="http://www.w3.org/2000/svg">
<path d="M357.833 405.257C365.541 422.126 361.317 425.006 348.425 411.676L305.884 367.598C292.992 354.268 283.666 358.464 285.148 376.951L290.03 438.034C291.511 456.494 286.574 457.756 279.058 440.777L254.126 384.796C246.61 367.845 236.407 368.613 231.47 386.496L215.177 445.55C210.24 463.433 205.166 462.94 203.877 444.425L199.598 383.314C198.309 364.8 188.462 362.03 177.655 377.143L142.135 427.09C131.41 442.204 126.802 439.982 131.904 422.153L148.8 363.264C153.902 345.436 145.591 339.456 130.341 349.989L79.8996 384.823C64.6218 395.356 61.0561 391.68 71.9453 376.594L107.959 327.031C118.93 312.028 113.116 303.58 95.1773 308.242L36.0139 323.767C18.0481 328.43 15.9636 323.767 31.3236 313.399L82.1213 279.141C97.5087 268.773 94.9853 258.844 76.6356 257.198L15.6344 251.41C-2.82501 249.655 -3.20901 244.553 14.7841 240.055L74.2218 225.244C92.215 220.773 93.2298 210.597 76.4984 202.615L21.1476 176.338C4.41613 168.357 5.78756 163.447 24.2196 165.367L85.1658 171.758C103.598 173.705 108.041 164.489 95.0401 151.269L52.0321 107.63C39.0036 94.4367 41.9933 90.295 58.6424 98.4139L113.719 125.266C130.396 133.495 137.719 126.254 130.012 109.413L104.503 53.6779C96.7956 36.8093 101.02 33.9293 113.911 47.287L156.453 91.3647C169.344 104.695 178.67 100.498 177.189 82.0116L172.279 20.9282C170.798 2.44131 175.762 1.1796 183.25 18.1853L208.156 74.167C215.698 91.0905 225.902 90.3225 230.839 72.4665L247.132 13.3853C252.069 -4.49812 257.143 -3.97698 258.432 14.5099L262.711 75.6482C264 94.135 273.847 96.9053 284.654 81.7922L320.146 31.8722C330.898 16.759 335.506 18.9807 330.405 36.8093L313.289 95.671C308.188 113.5 316.471 119.452 331.749 108.946L382.19 74.167C397.468 63.6345 401.033 67.3099 390.144 82.3956L354.185 131.767C343.214 146.77 349.056 155.246 366.994 150.556L426.295 135.141C444.233 130.478 446.345 135.141 430.985 145.509L380.188 179.767C364.8 190.135 367.324 200.037 385.673 201.71L446.674 207.497C465.134 209.253 465.518 214.354 447.525 218.825L388.087 233.637C370.094 238.135 369.079 248.311 385.81 256.265L441.161 282.569C457.893 290.524 456.521 295.461 438.062 293.541L377.143 287.122C358.711 285.202 354.268 294.418 367.269 307.612L410.277 351.25C423.305 364.471 420.316 368.613 403.639 360.494L348.59 333.614C331.913 325.385 324.59 332.626 332.297 349.495L357.833 405.257Z" fill="#44E197"/>
</svg>
