<svg width="177" height="34" viewBox="0 0 177 34" fill="none" xmlns="http://www.w3.org/2000/svg">
<mask id="mask0_39_1222" style="mask-type:luminance" maskUnits="userSpaceOnUse" x="0" y="0" width="176" height="33">
<path d="M175.717 0.855469H0.800049V32.6972H175.717V0.855469Z" fill="white"/>
</mask>
<g mask="url(#mask0_39_1222)">
<path d="M16.6763 0.87207C12.4572 0.889065 8.41694 2.57825 5.44112 5.56939C2.46528 8.56053 0.79668 12.6096 0.800963 16.8291C0.778402 18.9203 1.17359 20.995 1.96341 22.9314C2.75324 24.8679 3.92178 26.6271 5.40046 28.106C6.87914 29.5847 8.63819 30.7533 10.5745 31.5432C12.5107 32.3332 14.5852 32.7284 16.6763 32.7058C20.8344 32.6124 24.7907 30.8949 27.6985 27.9209C30.6062 24.9468 32.2343 20.9525 32.2343 16.7929C32.2343 12.6334 30.6062 8.63919 27.6985 5.66512C24.7907 2.69105 20.8344 0.973506 16.6763 0.880105V0.87207ZM16.6763 24.5427C14.6298 24.5385 12.6685 23.7235 11.2214 22.2765C9.77438 20.8293 8.95956 18.8677 8.95532 16.821C8.95532 14.7688 9.77046 12.8008 11.2214 11.3497C12.6724 9.89858 14.6403 9.08336 16.6923 9.08336C18.7443 9.08336 20.7123 9.89858 22.1633 11.3497C23.6142 12.8008 24.4293 14.7688 24.4293 16.821C24.4209 18.8719 23.6002 20.8358 22.1472 22.283C20.6941 23.7302 18.727 24.5427 16.6763 24.5427Z" fill="#281E3C"/>
<path d="M60.1896 0.855469H55.0129C54.5276 0.855469 54.0621 1.04827 53.7189 1.39148C53.3757 1.73469 53.1829 2.20018 53.1829 2.68555V19.6459C53.1829 20.7465 52.7458 21.802 51.9676 22.5802C51.1894 23.3585 50.134 23.7957 49.0335 23.7957C47.933 23.7957 46.8776 23.3585 46.0995 22.5802C45.3213 21.802 44.8841 20.7465 44.8841 19.6459V2.68555C44.8841 2.20018 44.6912 1.73469 44.3481 1.39148C44.0049 1.04827 43.5395 0.855469 43.0542 0.855469H37.9095C37.4262 0.861707 36.9643 1.05652 36.6225 1.39839C36.2806 1.74025 36.0858 2.20212 36.0796 2.68555V19.983C36.0796 23.4232 37.446 26.7224 39.8784 29.1549C42.3107 31.5875 45.6097 32.9541 49.0495 32.9541C52.4894 32.9541 55.7883 31.5875 58.2207 29.1549C60.653 26.7224 62.0195 23.4232 62.0195 19.983V2.68555C61.9998 2.2065 61.8007 1.7524 61.4616 1.41338C61.1226 1.07436 60.6686 0.875207 60.1896 0.855469Z" fill="#281E3C"/>
<path d="M86.3147 0.855539H67.4537C66.962 0.855539 66.4904 1.05088 66.1427 1.3986C65.795 1.74633 65.5996 2.21794 65.5996 2.70969V7.5899C65.5986 7.83369 65.6459 8.07527 65.7386 8.30071C65.8315 8.52614 65.9679 8.73099 66.1404 8.90337C66.3127 9.07576 66.5174 9.21229 66.7429 9.3051C66.9683 9.3979 67.2099 9.44512 67.4537 9.44405H72.4699V30.803C72.4761 31.295 72.6743 31.765 73.0222 32.1129C73.37 32.4608 73.84 32.659 74.3319 32.6652H79.4204C79.9116 32.659 80.3806 32.4605 80.7272 32.1123C81.0739 31.7643 81.2702 31.2942 81.2743 30.803V9.44405H86.3147C86.5585 9.44512 86.8 9.3979 87.0255 9.3051C87.2509 9.21229 87.4556 9.07576 87.6281 8.90337C87.8004 8.73099 87.9368 8.52614 88.0297 8.30071C88.1224 8.07527 88.1698 7.83369 88.1687 7.5899V2.70969C88.1708 2.46561 88.1243 2.22353 88.032 1.99761C87.9395 1.77169 87.803 1.56643 87.6304 1.39383C87.4579 1.22122 87.2526 1.08474 87.0266 0.992322C86.8007 0.8999 86.5587 0.853398 86.3147 0.855539Z" fill="#281E3C"/>
<path d="M146.439 0.855469H127.594C127.102 0.855469 126.631 1.05081 126.283 1.39853C125.936 1.74626 125.741 2.21787 125.741 2.70963V7.58983C125.74 7.83361 125.786 8.0752 125.879 8.30064C125.971 8.52608 126.109 8.73091 126.281 8.9033C126.453 9.07569 126.659 9.21222 126.883 9.30502C127.109 9.39783 127.35 9.44505 127.594 9.44398H132.61V30.8029C132.617 31.2948 132.815 31.7649 133.163 32.1128C133.511 32.4607 133.981 32.6589 134.473 32.6652H139.561C140.052 32.6589 140.521 32.4603 140.867 32.1123C141.214 31.7642 141.411 31.2941 141.415 30.8029V9.44398H146.439C146.683 9.44505 146.924 9.39783 147.15 9.30502C147.376 9.21222 147.58 9.07569 147.752 8.9033C147.925 8.73091 148.062 8.52608 148.154 8.30064C148.247 8.0752 148.295 7.83361 148.293 7.58983V2.70963C148.293 2.21787 148.097 1.74626 147.75 1.39853C147.402 1.05081 146.931 0.855469 146.439 0.855469Z" fill="#281E3C"/>
<path d="M108.058 0.855541H93.5224C93.0308 0.855541 92.5593 1.05088 92.2115 1.3986C91.8639 1.74633 91.6685 2.21794 91.6685 2.7097V30.803C91.6674 31.0472 91.7146 31.2891 91.8073 31.515C91.9 31.741 92.0364 31.9463 92.2086 32.1194C92.381 32.2923 92.5857 32.4296 92.8112 32.5233C93.0365 32.617 93.2783 32.6652 93.5224 32.6652H98.5227C99.0146 32.659 99.4846 32.4608 99.8325 32.1129C100.18 31.765 100.378 31.295 100.385 30.803V21.5564H106.003C106.495 21.55 106.965 21.3519 107.313 21.004C107.66 20.6561 107.859 20.186 107.865 19.6941V15.5203C107.859 15.0283 107.66 14.5582 107.313 14.2104C106.965 13.8625 106.495 13.6643 106.003 13.658H100.385V9.46013H108.058C108.302 9.46119 108.544 9.414 108.769 9.32129C108.995 9.22858 109.201 9.09218 109.374 8.9199C109.547 8.74762 109.684 8.54285 109.778 8.31737C109.871 8.09188 109.92 7.85014 109.92 7.60598V2.73377C109.924 2.4873 109.879 2.24245 109.787 2.01369C109.695 1.78492 109.558 1.57685 109.385 1.40179C109.211 1.22673 109.004 1.0882 108.776 0.994381C108.548 0.900561 108.304 0.85336 108.058 0.855541Z" fill="#281E3C"/>
<path d="M120.376 13.6162H115.288C114.797 13.6225 114.328 13.8211 113.981 14.1691C113.635 14.5172 113.438 14.9873 113.434 15.4785V30.7773C113.438 31.2685 113.635 31.7385 113.981 32.0866C114.328 32.4348 114.797 32.6332 115.288 32.6395H120.376C120.869 32.6333 121.338 32.435 121.686 32.0871C122.034 31.7393 122.232 31.2693 122.238 30.7773V15.5025C122.237 15.007 122.04 14.532 121.692 14.1795C121.344 13.8268 120.872 13.6247 120.376 13.6162Z" fill="#281E3C"/>
<path d="M120.376 0.855469H115.288C114.798 0.861709 114.33 1.05905 113.984 1.4054C113.638 1.75175 113.44 2.21971 113.434 2.70949V7.58931C113.438 8.07973 113.635 8.54889 113.982 8.89568C114.329 9.24247 114.798 9.43914 115.288 9.44333H120.376C120.868 9.43713 121.336 9.24008 121.684 8.89393C122.032 8.5478 122.23 8.07982 122.238 7.58931V2.70949C122.229 2.21962 122.028 1.7528 121.681 1.40709C121.334 1.06137 120.866 0.863665 120.376 0.855469Z" fill="#281E3C"/>
<path d="M155.463 32.6652H159.789C160.384 32.6783 160.968 32.5052 161.46 32.1699C161.953 31.8346 162.328 31.3539 162.534 30.7949L175.495 3.729C175.629 3.44788 175.7 3.14122 175.704 2.83002C175.712 2.758 175.712 2.68534 175.704 2.61332C175.657 2.14097 175.44 1.70185 175.093 1.37825C174.746 1.05466 174.293 0.868793 173.818 0.855469H155.359C154.853 0.855464 154.368 1.05563 154.011 1.41215C153.652 1.76868 153.45 2.25253 153.448 2.75778V7.63799C153.45 8.14325 153.652 8.62709 154.011 8.98363C154.368 9.34015 154.853 9.54033 155.359 9.54033H162.461C162.598 9.54006 162.732 9.57453 162.851 9.64053C162.971 9.70654 163.071 9.80189 163.143 9.91756C163.216 10.0332 163.258 10.1654 163.264 10.3017C163.271 10.4379 163.243 10.5737 163.184 10.6961L153.721 29.7756C153.578 30.0593 153.504 30.3728 153.504 30.6906C153.504 31.1086 153.635 31.5162 153.882 31.8544L153.977 31.9669C154.158 32.1858 154.385 32.362 154.642 32.4828C154.899 32.6035 155.179 32.6658 155.463 32.6652Z" fill="#281E3C"/>
</g>
</svg>
