<svg width="100" height="81" viewBox="0 0 100 81" fill="none" xmlns="http://www.w3.org/2000/svg">
<path d="M97.7 13.3501C99.98 22.2301 99.98 40.8301 99.98 40.8301C99.98 40.8301 99.98 59.4301 97.7 68.3701C97.1089 70.7468 95.9063 72.9276 94.2117 74.6959C92.5171 76.4642 90.3895 77.7584 88.04 78.4501C79.46 80.8501 50 80.8501 50 80.8501C50 80.8501 20.54 80.8501 11.96 78.4501C9.61051 77.7584 7.48283 76.4642 5.78824 74.6959C4.09364 72.9276 2.89109 70.7468 2.29999 68.3701C0.019989 59.4301 0.019989 40.8301 0.019989 40.8301C0.019989 40.8301 0.019989 22.2301 2.29999 13.3501C3.49999 8.37006 7.27999 4.53006 11.96 3.21006C20.54 0.810059 50 0.810059 50 0.810059C50 0.810059 79.46 0.810059 88.04 3.21006C92.78 4.53006 96.44 8.43006 97.7 13.3501ZM39.98 58.3501L69.98 40.8301L39.98 23.3101V58.3501Z" fill="white"/>
</svg>
