<svg width="100" height="100" viewBox="0 0 100 100" fill="none" xmlns="http://www.w3.org/2000/svg">
<path d="M50.2 0.600161C37.608 0.580191 25.4724 5.31402 16.2198 13.8551C6.96721 22.3962 1.27955 34.1151 0.294074 46.6686C-0.691403 59.2221 3.09793 71.6849 10.9044 81.5652C18.7109 91.4455 29.9591 98.015 42.4 99.9602V65.0402H29.68V50.5802H42.4V39.5402C42.4 27.0602 49.84 20.1002 61.3 20.1002C66.7 20.1002 72.46 21.1202 72.46 21.1202V33.3602H66.16C59.92 33.3602 58 37.2602 58 41.1602V50.5802H71.86L69.64 64.9802H58V99.9602C70.3054 97.8559 81.3798 91.228 89.0492 81.3775C96.7186 71.5271 100.429 59.1656 99.452 46.7199C98.475 34.2742 92.8811 22.6432 83.7686 14.1101C74.6561 5.57713 62.683 0.758478 50.2 0.600161Z" fill="white"/>
</svg>
