<svg width="80" height="92" viewBox="0 0 80 92" fill="none" xmlns="http://www.w3.org/2000/svg">
<path d="M79.5857 37.9086C71.8301 37.9316 64.2673 35.4932 57.9857 30.9444V62.7229C57.9857 68.6158 56.2071 74.3586 52.8857 79.2015C49.5881 84.0282 44.892 87.7297 39.4286 89.8086C33.9715 91.8832 28.0062 92.2183 22.3511 90.7681C16.696 89.3179 11.6281 86.1533 7.84287 81.7086C4.98019 78.3827 2.9074 74.452 1.77983 70.2111C0.652262 65.9701 0.499159 61.529 1.332 57.2205C2.16484 52.912 3.96202 48.8479 6.58885 45.3327C9.21569 41.8175 12.6041 38.9424 16.5 36.9229C21.6802 34.2642 27.5546 33.2689 33.3214 34.0729V50.0586C30.6815 49.2155 27.841 49.239 25.2154 50.1258C22.5898 51.0126 20.3167 52.7161 18.7286 54.9872C17.5283 56.6877 16.7415 58.6449 16.4309 60.703C16.1203 62.7612 16.2945 64.8634 16.9396 66.8424C17.5847 68.8213 18.6828 70.6223 20.1467 72.1021C21.6105 73.5818 23.3996 74.6994 25.3714 75.3658C28.0112 76.2329 30.8595 76.2303 33.4977 75.3586C36.1359 74.4869 38.425 72.792 40.0286 70.5229C41.6523 68.2468 42.5216 65.5189 42.5143 62.7229V0.580078H57.9857C58.0021 6.31787 60.2741 11.8191 64.3113 15.8964C68.3484 19.9736 73.8269 22.2998 79.5643 22.3729V37.9086H79.5857Z" fill="white"/>
</svg>
