<svg width="101" height="101" viewBox="0 0 101 101" fill="none" xmlns="http://www.w3.org/2000/svg">
<path d="M50.4101 35.8301C46.4318 35.8301 42.6165 37.4104 39.8035 40.2235C36.9904 43.0365 35.4101 46.8518 35.4101 50.8301C35.4101 54.8083 36.9904 58.6237 39.8035 61.4367C42.6165 64.2497 46.4318 65.8301 50.4101 65.8301C54.3883 65.8301 58.2036 64.2497 61.0167 61.4367C63.8297 58.6237 65.4101 54.8083 65.4101 50.8301C65.4101 46.8518 63.8297 43.0365 61.0167 40.2235C58.2036 37.4104 54.3883 35.8301 50.4101 35.8301ZM50.4101 25.8101C57.0458 25.8101 63.4097 28.4461 68.1019 33.1383C72.794 37.8304 75.4301 44.1944 75.4301 50.8301C75.4301 57.4658 72.794 63.8297 68.1019 68.5219C63.4097 73.2141 57.0458 75.8501 50.4101 75.8501C43.7743 75.8501 37.4104 73.2141 32.7182 68.5219C28.0261 63.8297 25.3901 57.4658 25.3901 50.8301C25.3901 44.1944 28.0261 37.8304 32.7182 33.1383C37.4104 28.4461 43.7743 25.8101 50.4101 25.8101ZM82.9301 24.6101C82.9301 26.273 82.2695 27.8678 81.0936 29.0437C79.9178 30.2195 78.323 30.8801 76.6601 30.8801C74.9971 30.8801 73.4023 30.2195 72.2265 29.0437C71.0506 27.8678 70.3901 26.273 70.3901 24.6101C70.3901 22.9472 71.0506 21.3524 72.2265 20.1765C73.4023 19.0007 74.9971 18.3401 76.6601 18.3401C78.323 18.3401 79.9178 19.0007 81.0936 20.1765C82.2695 21.3524 82.9301 22.9472 82.9301 24.6101ZM50.4101 10.8101C38.0501 10.8101 36.0101 10.8101 30.2501 11.1101C26.3501 11.2901 23.7101 11.8301 21.2501 12.7901C19.0901 13.6301 17.5301 14.5901 15.8501 16.2701C14.2982 17.7851 13.1086 19.631 12.3701 21.6701C11.4101 24.1301 10.8701 26.7701 10.6901 30.6701C10.4501 36.1901 10.3901 38.1101 10.3901 50.8301C10.3901 63.1901 10.3901 65.2301 10.6901 70.9901C10.8701 74.8901 11.4101 77.5301 12.3701 79.9901C13.2101 82.1501 14.1701 83.7101 15.8501 85.3901C17.5301 87.0701 19.0901 88.0301 21.2501 88.8701C23.7101 89.8301 26.3501 90.3701 30.2501 90.5501C35.7701 90.7901 37.6901 90.8501 50.4101 90.8501C62.7701 90.8501 64.8101 90.8501 70.5701 90.5501C74.4701 90.3701 77.1101 89.8301 79.5701 88.8701C81.7301 88.0301 83.2901 87.0701 84.9701 85.3901C86.6501 83.7101 87.6101 82.1501 88.4501 79.9901C89.4101 77.5301 89.9501 74.8901 90.1301 70.9901C90.3701 65.4701 90.4301 63.5501 90.4301 50.8301C90.4301 38.4701 90.4301 36.4301 90.1301 30.6701C90.0818 27.5968 89.5138 24.5538 88.4501 21.6701C87.706 19.6337 86.5171 17.789 84.9701 16.2701C83.4551 14.7183 81.6091 13.5287 79.5701 12.7901C77.1101 11.8301 74.4701 11.2901 70.5701 11.1101C65.0501 10.8701 63.1301 10.8101 50.4101 10.8101ZM50.4101 0.850098C63.9701 0.850098 65.7101 0.850098 71.0501 1.1501C76.3301 1.3901 79.9901 2.2301 83.1701 3.4301C86.4701 4.7501 89.2301 6.4301 91.9901 9.1901C94.5701 11.7101 96.5501 14.7701 97.8101 18.0701C99.0101 21.2501 99.8501 24.9101 100.09 30.2501C100.33 35.5301 100.39 37.2701 100.39 50.8301C100.494 57.7115 100.394 64.5946 100.09 71.4701C99.8501 76.7501 99.0101 80.4101 97.8101 83.5901C96.5501 86.8901 94.5701 89.9501 92.0501 92.4101C89.549 94.9733 86.5184 96.9596 83.1701 98.2301C79.9901 99.4301 76.3301 100.27 70.9901 100.51C65.7101 100.75 63.9701 100.81 50.4101 100.81C43.5286 100.914 36.6456 100.814 29.7701 100.51C25.6309 100.434 21.5339 99.6635 17.6501 98.2301C14.3045 96.9824 11.2734 95.0162 8.77005 92.4701C6.22696 89.9643 4.26125 86.9339 3.01005 83.5901C1.56667 79.6883 0.795735 75.5698 0.730054 71.4101C0.490054 66.1301 0.430054 64.3901 0.430054 50.8301C0.430054 37.2701 0.430054 35.5301 0.730054 30.2501C0.970054 24.8501 1.81005 21.2501 3.01005 18.0701C4.27005 14.7701 6.25005 11.7101 8.77005 9.1901C11.2901 6.6701 14.3501 4.6901 17.6501 3.4301C20.8301 2.2301 24.4901 1.3901 29.7701 1.1501C35.1701 0.910098 36.8501 0.850098 50.4101 0.850098Z" fill="white"/>
</svg>
