<svg width="225" height="234" viewBox="0 0 225 234" fill="none" xmlns="http://www.w3.org/2000/svg">
<path fill-rule="evenodd" clip-rule="evenodd" d="M0.49585 60.4986C0.49585 27.2583 27.4426 0.311523 60.6829 0.311523C77.8755 0.311523 93.3775 7.51356 104.352 19.0797C108.781 23.7473 116.356 23.7473 120.785 19.0797C131.759 7.51356 147.261 0.311523 164.454 0.311523C197.694 0.311523 224.64 27.2583 224.64 60.4986C224.64 93.7388 197.694 120.686 164.454 120.686C157.196 120.686 150.24 119.402 143.799 117.049C140.9 102.702 128.221 91.9005 113.019 91.9005C97.9478 91.9005 85.3562 102.518 82.3167 116.682C75.6033 119.269 68.3094 120.686 60.6829 120.686C27.4426 120.686 0.49585 93.7388 0.49585 60.4986ZM105.169 198.201V217.508H94.7017C90.3658 217.508 86.8512 221.023 86.8512 225.359C86.8512 229.695 90.3658 233.209 94.7017 233.209H130.029C134.365 233.209 137.879 229.695 137.879 225.359C137.879 221.023 134.365 217.508 130.029 217.508H120.87V198.201C118.361 198.847 115.73 199.19 113.019 199.19C110.309 199.19 107.678 198.847 105.169 198.201ZM92.0848 162.555V167.789C92.0848 179.35 101.458 188.723 113.019 188.723C124.581 188.723 133.954 179.35 133.954 167.789V162.555H92.0848ZM133.954 152.088V123.302C133.954 111.741 124.581 102.368 113.019 102.368C101.458 102.368 92.0848 111.741 92.0848 123.302V152.088H133.954ZM60.6829 36.9471C63.5734 36.9471 65.9166 39.2902 65.9166 42.1808V78.8164C65.9166 81.7069 63.5734 84.05 60.6829 84.05C57.7924 84.05 55.4492 81.7069 55.4492 78.8164V42.1808C55.4492 39.2902 57.7924 36.9471 60.6829 36.9471ZM170.59 42.1808C170.59 39.2902 168.247 36.9471 165.356 36.9471C162.465 36.9471 160.122 39.2902 160.122 42.1808V78.8164C160.122 81.7069 162.465 84.05 165.356 84.05C168.247 84.05 170.59 81.7069 170.59 78.8164V42.1808ZM113.019 42.1808C110.129 42.1808 107.786 44.5239 107.786 47.4144V73.5827C107.786 76.4733 110.129 78.8164 113.019 78.8164C115.91 78.8164 118.253 76.4733 118.253 73.5827V47.4144C118.253 44.5239 115.91 42.1808 113.019 42.1808ZM29.281 52.6481C29.281 49.7575 31.6241 47.4144 34.5146 47.4144C37.4052 47.4144 39.7483 49.7575 39.7483 52.6481V68.3491C39.7483 71.2396 37.4052 73.5827 34.5146 73.5827C31.6241 73.5827 29.281 71.2396 29.281 68.3491V52.6481ZM139.188 47.4144C136.297 47.4144 133.954 49.7575 133.954 52.6481V68.3491C133.954 71.2396 136.297 73.5827 139.188 73.5827C142.078 73.5827 144.421 71.2396 144.421 68.3491V52.6481C144.421 49.7575 142.078 47.4144 139.188 47.4144ZM92.0848 50.0313C92.0848 47.1407 89.7417 44.7976 86.8512 44.7976C83.9606 44.7976 81.6175 47.1407 81.6175 50.0313V70.9659C81.6175 73.8564 83.9606 76.1995 86.8512 76.1995C89.7417 76.1995 92.0848 73.8564 92.0848 70.9659V50.0313ZM191.524 47.4144C188.634 47.4144 186.291 49.7575 186.291 52.6481V68.3491C186.291 71.2396 188.634 73.5827 191.524 73.5827C194.415 73.5827 196.758 71.2396 196.758 68.3491V52.6481C196.758 49.7575 194.415 47.4144 191.524 47.4144Z" fill="white"/>
</svg>
