<svg width="280" height="242" viewBox="0 0 280 242" fill="none" xmlns="http://www.w3.org/2000/svg">
<path d="M247.981 70.8173H133.549C125.121 70.8274 117.042 74.1796 111.083 80.1386C105.124 86.0976 101.772 94.1769 101.762 102.604V178.893C101.772 187.32 105.124 195.4 111.083 201.359C117.042 207.318 125.121 210.67 133.549 210.68H197.669L225.342 238.36C226.676 239.695 228.376 240.604 230.226 240.972C232.076 241.34 233.994 241.151 235.737 240.429C237.48 239.707 238.97 238.484 240.018 236.915C241.066 235.346 241.624 233.502 241.624 231.615V210.68H247.981C256.408 210.67 264.487 207.318 270.446 201.359C276.405 195.4 279.758 187.32 279.768 178.893V102.604C279.758 94.1769 276.405 86.0976 270.446 80.1386C264.487 74.1796 256.408 70.8274 247.981 70.8173ZM222.552 131.213H218.998C217.528 144.339 211.549 156.549 202.081 165.759C207.544 168.11 213.425 169.334 219.373 169.357C221.083 169.348 222.729 170.008 223.96 171.195C225.19 172.383 225.908 174.005 225.959 175.714C225.985 176.537 225.845 177.357 225.548 178.125C225.252 178.894 224.805 179.595 224.233 180.187C223.661 180.78 222.976 181.252 222.219 181.575C221.462 181.899 220.648 182.068 219.824 182.072C209.662 182.044 199.685 179.347 190.892 174.252C182.18 179.369 172.26 182.068 162.157 182.072C160.446 182.081 158.8 181.421 157.57 180.233C156.339 179.045 155.622 177.424 155.57 175.714C155.545 174.891 155.685 174.071 155.981 173.303C156.278 172.535 156.725 171.834 157.297 171.241C157.869 170.649 158.553 170.177 159.31 169.853C160.068 169.529 160.882 169.361 161.705 169.357C167.848 169.364 173.928 168.123 179.576 165.708C174.647 161.02 170.608 155.478 167.656 149.35C167.267 148.593 167.034 147.765 166.971 146.915C166.908 146.066 167.017 145.213 167.29 144.406C167.563 143.6 167.996 142.856 168.562 142.22C169.128 141.584 169.816 141.068 170.586 140.703C171.355 140.338 172.19 140.131 173.041 140.095C173.892 140.058 174.741 140.194 175.539 140.492C176.336 140.79 177.066 141.246 177.684 141.832C178.302 142.417 178.796 143.121 179.137 143.902C181.88 149.662 185.833 154.762 190.727 158.854C199.1 151.858 204.593 142.013 206.15 131.213H158.978C157.292 131.213 155.675 130.543 154.483 129.35C153.29 128.158 152.621 126.541 152.621 124.855C152.621 123.169 153.29 121.552 154.483 120.36C155.675 119.168 157.292 118.498 158.978 118.498H184.407V105.783C184.407 104.097 185.077 102.48 186.269 101.288C187.462 100.095 189.079 99.4255 190.765 99.4255C192.451 99.4255 194.068 100.095 195.26 101.288C196.452 102.48 197.122 104.097 197.122 105.783V118.498H222.552C224.238 118.498 225.855 119.168 227.047 120.36C228.239 121.552 228.909 123.169 228.909 124.855C228.909 126.541 228.239 128.158 227.047 129.35C225.855 130.543 224.238 131.213 222.552 131.213Z" fill="white"/>
<path d="M89.039 54.3959L78.6829 77.1744H97.0747C97.5324 76.5387 98.0219 75.903 98.5178 75.2672L89.039 54.3959Z" fill="white"/>
<path d="M146.26 0.884766H31.8278C23.4005 0.89486 15.3213 4.24708 9.36229 10.2061C3.4033 16.1651 0.0511102 24.2444 0.0410156 32.6717V108.961C0.0511102 117.388 3.4033 125.467 9.36229 131.426C15.3213 137.385 23.4005 140.737 31.8278 140.747H38.1851V161.682C38.1843 163.569 38.7431 165.414 39.7909 166.983C40.8386 168.552 42.3283 169.775 44.0713 170.497C45.8143 171.219 47.7323 171.408 49.5827 171.039C51.4331 170.671 53.1326 169.762 54.4663 168.428L82.1398 140.747H89.0439V102.603C89.0569 98.2946 89.6994 94.011 90.9511 89.8883H72.909L63.0424 111.592C62.3206 113.089 61.0418 114.243 59.4795 114.809C57.9173 115.374 56.1959 115.305 54.6837 114.617C53.1714 113.929 51.9886 112.677 51.3884 111.128C50.7881 109.578 50.8181 107.856 51.472 106.329L83.2587 36.3972C83.7644 35.2873 84.5787 34.3462 85.6045 33.6864C86.6303 33.0265 87.8242 32.6756 89.0439 32.6756C90.2636 32.6756 91.4576 33.0265 92.4833 33.6864C93.5091 34.3462 94.3234 35.2873 94.8291 36.3972L108.288 66.0036C115.702 60.8514 124.517 58.0936 133.545 58.1013H178.047V32.6717C178.037 24.2444 174.685 16.1651 168.726 10.2061C162.767 4.24708 154.687 0.89486 146.26 0.884766Z" fill="white"/>
</svg>
