<svg width="263" height="227" viewBox="0 0 263 227" fill="none" xmlns="http://www.w3.org/2000/svg">
<path d="M109.272 89.3405C139.42 105.981 178.99 82.7353 178.425 47.5696C178.412 35.0576 173.436 23.0616 164.589 14.2142C155.742 5.36681 143.746 0.390636 131.234 0.377686C81.9015 0.793301 66.3212 66.5186 109.272 89.3405Z" fill="white"/>
<path d="M131.214 135.739C136.736 130.881 143.858 128.235 151.212 128.309C159.231 128.653 167.091 130.658 174.294 134.197C188.139 140.57 202.651 145.381 217.561 148.541V139.897C217.566 131.419 214.901 123.156 209.944 116.278C204.987 109.401 197.991 104.259 189.947 101.583L164.622 93.1718C154.913 100.231 143.218 104.033 131.214 104.033C119.21 104.033 107.515 100.231 97.8059 93.1723L72.4812 101.583C64.4374 104.259 57.4408 109.401 52.4841 116.279C47.5274 123.156 44.8623 131.42 44.8669 139.897V148.541C59.7284 145.389 74.193 140.594 87.9938 134.243C104.543 127.178 117.966 124.861 131.214 135.739Z" fill="white"/>
<path d="M257.381 189.057H145.242C141.959 189.06 138.735 189.931 135.897 191.58C135.903 194.641 135.878 193.378 135.944 196.252C135.944 197.504 135.446 198.704 134.561 199.589C133.676 200.474 132.476 200.971 131.224 200.971C129.973 200.971 128.772 200.474 127.887 199.589C127.002 198.704 126.505 197.504 126.505 196.252C126.566 193.317 126.548 194.669 126.552 191.58C123.713 189.931 120.49 189.06 117.207 189.057H5.06797C3.82989 189.06 2.64358 189.554 1.76813 190.429C0.892669 191.305 0.399205 192.491 0.395508 193.729V198.402C0.406392 202.116 1.88671 205.675 4.51313 208.301C7.13954 210.928 10.6986 212.408 14.4129 212.419H106.974C107.79 212.424 108.59 212.642 109.295 213.051C110 213.461 110.585 214.048 110.993 214.755C113.077 218.263 116.038 221.169 119.585 223.187C123.132 225.206 127.143 226.267 131.224 226.267C135.305 226.267 139.316 225.206 142.863 223.188C146.41 221.169 149.371 218.264 151.456 214.755C151.864 214.049 152.449 213.462 153.154 213.052C153.859 212.642 154.659 212.424 155.475 212.419H248.036C251.75 212.408 255.309 210.928 257.936 208.301C260.562 205.675 262.042 202.116 262.053 198.402V193.729C262.05 192.491 261.556 191.305 260.681 190.429C259.805 189.554 258.619 189.06 257.381 189.057Z" fill="white"/>
<path d="M126.545 182.228V144.054C117.761 135.504 107.295 136.018 91.8754 142.746C68.9478 153.523 44.1448 159.744 18.8448 161.062C16.4003 161.103 14.0708 162.107 12.3641 163.858C10.6574 165.608 9.71181 167.963 9.73352 170.407V179.705H117.2C120.483 179.709 123.707 180.579 126.545 182.228Z" fill="white"/>
<path d="M170.562 142.746C155.142 136.018 144.723 135.504 135.892 144.054V182.228C138.73 180.579 141.954 179.709 145.237 179.705H252.703V170.407C252.701 167.969 251.748 165.629 250.046 163.883C248.345 162.138 246.029 161.126 243.592 161.062C231.658 160.583 219.806 158.876 208.222 155.969C195.283 152.747 182.674 148.32 170.562 142.746Z" fill="white"/>
</svg>
