<svg width="256" height="236" viewBox="0 0 256 236" fill="none" xmlns="http://www.w3.org/2000/svg">
<path d="M170.444 0.528564H150.644C129.785 0.559725 109.79 8.8628 95.0451 23.6165C80.2999 38.3703 72.0084 58.37 71.9893 79.2289C71.9813 84.0972 70.3473 88.8232 67.3465 92.6567L50.1408 114.551C49.0215 115.969 48.256 117.634 47.9077 119.407C47.5595 121.18 47.6384 123.01 48.138 124.747C50.0593 132.907 60.7626 133.926 67.4376 136.991C66.2819 137.859 65.3376 138.978 64.6755 140.263C64.0133 141.547 63.6505 142.965 63.6141 144.41C63.1552 149.227 68.5717 152.843 71.6252 155.699L67.8017 159.75C66.7924 160.854 66.0706 162.19 65.7001 163.64C65.3295 165.089 65.3217 166.607 65.6771 168.061C66.0326 169.514 66.7405 170.857 67.7382 171.972C68.736 173.087 69.9929 173.939 71.398 174.452L66.1631 182.873C64.4596 185.725 63.6092 189.005 63.7127 192.325C63.8162 195.645 64.8692 198.865 66.747 201.605C68.6248 204.345 71.2486 206.489 74.3076 207.784C77.3666 209.078 80.7325 209.469 84.0066 208.909L101.03 205.723C101.974 205.543 102.945 205.557 103.884 205.765C104.823 205.973 105.709 206.371 106.489 206.933C107.269 207.495 107.925 208.211 108.419 209.036C108.913 209.861 109.233 210.778 109.359 211.731L109.997 216.556C110.683 221.851 113.343 226.691 117.445 230.109C121.546 233.527 126.787 235.271 132.118 234.991L198.119 231.941C201.258 231.787 204.324 230.944 207.1 229.473C209.877 228.002 212.296 225.939 214.187 223.429C216.076 220.91 217.379 218.001 218.001 214.914C218.623 211.827 218.548 208.641 217.783 205.586L215.143 194.753C213.176 186.587 213.504 178.035 216.091 170.043C218.677 162.051 223.422 154.929 229.8 149.463C282.546 95.3403 248.689 1.09299 170.444 0.528564Z" fill="white"/>
<path d="M9.53859 158.077C9.52469 151.675 10.7786 145.334 13.228 139.419C15.6774 133.504 19.2737 128.132 23.8096 123.614C24.6326 122.754 25.0857 121.605 25.0715 120.414C25.0574 119.223 24.5773 118.086 23.7341 117.245C22.8909 116.404 21.7517 115.927 20.5609 115.916C19.3702 115.905 18.2226 116.362 17.3642 117.187C6.59077 128.07 0.547454 142.764 0.547607 158.077C0.547761 173.391 6.59137 188.085 17.3651 198.968C18.2226 199.797 19.3716 200.257 20.5648 200.248C21.758 200.239 22.8999 199.762 23.7447 198.919C24.5896 198.077 25.0698 196.936 25.0819 195.743C25.094 194.55 24.6371 193.4 23.8096 192.54C19.2736 188.022 15.6771 182.651 13.2277 176.736C10.7783 170.821 9.5245 164.479 9.53859 158.077Z" fill="white"/>
<path d="M25.139 158.077C25.1257 153.728 25.9775 149.419 27.6449 145.401C29.3123 141.384 31.762 137.738 34.8514 134.676C35.6789 133.818 36.1369 132.67 36.1271 131.477C36.1172 130.285 35.6404 129.145 34.7989 128.3C33.9574 127.456 32.8183 126.975 31.6263 126.961C30.4343 126.948 29.2844 127.402 28.4235 128.226C20.5413 136.162 16.1175 146.893 16.1177 158.077C16.1178 169.262 20.5418 179.993 28.4243 187.928C28.8478 188.35 29.3502 188.685 29.903 188.913C30.4558 189.14 31.048 189.257 31.6459 189.256C32.2437 189.255 32.8355 189.136 33.3875 188.906C33.9395 188.677 34.4407 188.34 34.8628 187.917C35.2848 187.493 35.6192 186.991 35.847 186.438C36.0749 185.885 36.1916 185.293 36.1905 184.695C36.1895 184.097 36.0707 183.506 35.8409 182.954C35.6111 182.402 35.2749 181.9 34.8514 181.478C31.762 178.416 29.3123 174.771 27.645 170.753C25.9776 166.736 25.1257 162.427 25.139 158.077Z" fill="white"/>
<path d="M46.4354 139.813C38.4578 133.677 31.9016 152.055 32.4311 158.077C32.4218 161.471 33.0859 164.833 34.3849 167.968C35.6839 171.103 37.5921 173.95 39.9989 176.343C40.4209 176.768 40.9228 177.105 41.4756 177.336C42.0285 177.567 42.6214 177.686 43.2204 177.687C43.8195 177.688 44.4128 177.571 44.9664 177.342C45.5201 177.113 46.0231 176.777 46.4467 176.354C46.8702 175.93 47.206 175.427 47.4347 174.874C47.6635 174.32 47.7807 173.727 47.7796 173.128C47.7785 172.528 47.6592 171.936 47.4285 171.383C47.1978 170.83 46.8602 170.328 46.4351 169.906C43.3165 166.759 41.5669 162.508 41.567 158.078C41.5671 153.647 43.3168 149.396 46.4355 146.249C46.8582 145.827 47.1936 145.325 47.4224 144.773C47.6511 144.221 47.7689 143.629 47.7689 143.031C47.7689 142.433 47.6511 141.841 47.4223 141.289C47.1935 140.737 46.8582 140.235 46.4354 139.813Z" fill="white"/>
</svg>
