<svg width="270" height="153" viewBox="0 0 270 153" fill="none" xmlns="http://www.w3.org/2000/svg">
<path d="M5.29293 34.0909C7.74966 34.0909 9.74138 32.0992 9.74138 29.6425V9.10991H30.2739C32.7307 9.10991 34.7224 7.11819 34.7224 4.66146C34.7224 2.20473 32.7307 0.213013 30.2739 0.213013H5.29293C2.8362 0.213013 0.844482 2.20473 0.844482 4.66146V29.6425C0.844482 32.0995 2.8362 34.0909 5.29293 34.0909Z" fill="white"/>
<path d="M148.237 0.212891H123.256C120.799 0.212891 118.808 2.20461 118.808 4.66134C118.808 7.11807 120.799 9.10979 123.256 9.10979H143.789V29.6424C143.789 32.0991 145.78 34.0908 148.237 34.0908C150.694 34.0908 152.686 32.0991 152.686 29.6424V4.66134C152.686 2.20461 150.694 0.212891 148.237 0.212891Z" fill="white"/>
<path d="M148.237 118.176C145.78 118.176 143.789 120.168 143.789 122.624V143.157H123.256C120.799 143.157 118.808 145.149 118.808 147.605C118.808 150.062 120.799 152.054 123.256 152.054H148.237C150.694 152.054 152.686 150.062 152.686 147.605V122.624C152.686 120.167 150.694 118.176 148.237 118.176Z" fill="white"/>
<path d="M30.273 143.157H9.74041V122.624C9.74041 120.168 7.74869 118.176 5.29196 118.176C2.83523 118.176 0.843506 120.168 0.843506 122.624V147.605C0.843506 150.062 2.83523 152.054 5.29196 152.054H30.273C32.7297 152.054 34.7214 150.062 34.7214 147.605C34.7214 145.149 32.73 143.157 30.273 143.157Z" fill="white"/>
<path d="M125.302 56.9683V28.8748C125.302 27.481 124.173 26.3511 122.776 26.3511H76.7669H30.758C29.3612 26.3511 28.2313 27.481 28.2313 28.8748V56.9683C28.2313 58.3651 29.3612 59.495 30.758 59.495H44.1746C45.5684 59.495 46.6983 58.3651 46.6983 56.9683V47.3448C46.6983 45.948 47.8312 44.8181 49.225 44.8181H65.0052C66.402 44.8181 67.5319 45.948 67.5319 47.3448V116.782C67.5319 118.179 66.402 119.309 65.0052 119.309H58.1042C56.7073 119.309 55.5774 120.439 55.5774 121.836V135.252C55.5774 136.646 56.7073 137.776 58.1042 137.776H76.7669H95.4296C96.8264 137.776 97.9563 136.646 97.9563 135.252V121.836C97.9563 120.439 96.8264 119.309 95.4296 119.309H88.5286C87.1318 119.309 86.0019 118.179 86.0019 116.782V47.3448C86.0019 45.948 87.1318 44.8181 88.5286 44.8181H104.309C105.703 44.8181 106.835 45.948 106.835 47.3448V56.9683C106.835 58.3651 107.965 59.495 109.359 59.495H122.776C124.173 59.495 125.302 58.3651 125.302 56.9683Z" fill="white"/>
<path fill-rule="evenodd" clip-rule="evenodd" d="M221.046 17.1509C224.027 17.1509 226.445 19.5682 226.445 22.5501V137.733C226.445 140.715 224.027 143.133 221.046 143.133C218.064 143.133 215.646 140.715 215.646 137.733V22.5501C215.646 19.5682 218.064 17.1509 221.046 17.1509ZM199.449 38.7477C202.431 38.7477 204.848 41.1651 204.848 44.147V116.136C204.848 119.118 202.431 121.536 199.449 121.536C196.467 121.536 194.05 119.118 194.05 116.136V44.147C194.05 41.1651 196.467 38.7477 199.449 38.7477ZM156.255 45.9467C159.237 45.9467 161.654 48.364 161.654 51.3459V108.938C161.654 111.919 159.237 114.337 156.255 114.337C153.273 114.337 150.856 111.919 150.856 108.938V51.3459C150.856 48.364 153.273 45.9467 156.255 45.9467ZM242.643 53.1456C245.624 53.1456 248.042 55.563 248.042 58.5449V101.739C248.042 104.72 245.624 107.138 242.643 107.138C239.661 107.138 237.243 104.72 237.243 101.739V58.5449C237.243 55.563 239.661 53.1456 242.643 53.1456ZM177.852 60.3446C180.834 60.3446 183.251 62.7619 183.251 65.7438V94.5396C183.251 97.5214 180.834 99.9388 177.852 99.9388C174.87 99.9388 172.453 97.5214 172.453 94.5396V65.7438C172.453 62.7619 174.87 60.3446 177.852 60.3446ZM134.658 67.5435C137.64 67.5435 140.057 69.961 140.057 72.9428V87.3407C140.057 90.3225 137.64 92.7399 134.658 92.7399C131.676 92.7399 129.259 90.3225 129.259 87.3407V72.9428C129.259 69.961 131.676 67.5435 134.658 67.5435ZM264.239 67.5435C267.221 67.5435 269.639 69.961 269.639 72.9428V87.3407C269.639 90.3225 267.221 92.7399 264.239 92.7399C261.258 92.7399 258.84 90.3225 258.84 87.3407V72.9428C258.84 69.961 261.258 67.5435 264.239 67.5435Z" fill="white"/>
</svg>
